<svg width="564" height="362" viewBox="0 0 564 362" fill="none" xmlns="http://www.w3.org/2000/svg">
<g clip-path="url(#clip0_62_12)">
<rect width="564" height="362" rx="14" fill="#73C497"/>
<path d="M312.566 -0.887579C309.8 -9.88931 316.531 -19 325.948 -19H550C557.732 -19 564 -12.732 564 -5V372C564 379.732 557.732 386 550 386H326.184C316.705 386 309.977 376.762 312.885 367.74V367.74C350.525 250.953 351.381 125.421 315.337 8.13051L312.566 -0.887579Z" fill="#2F6840"/>
<path fill-rule="evenodd" clip-rule="evenodd" d="M385 63C399.912 63 412 50.9117 412 36C412 21.0883 399.912 9 385 9C370.088 9 358 21.0883 358 36C358 50.9117 370.088 63 385 63ZM385 54C394.941 54 403 45.9411 403 36C403 26.0589 394.941 18 385 18C375.059 18 367 26.0589 367 36C367 45.9411 375.059 54 385 54Z" fill="#2F8655"/>
<path fill-rule="evenodd" clip-rule="evenodd" d="M427 141C441.912 141 454 128.912 454 114C454 99.0883 441.912 87 427 87C412.088 87 400 99.0883 400 114C400 128.912 412.088 141 427 141ZM427 132C436.941 132 445 123.941 445 114C445 104.059 436.941 96 427 96C417.059 96 409 104.059 409 114C409 123.941 417.059 132 427 132Z" fill="#2F8655"/>
<path fill-rule="evenodd" clip-rule="evenodd" d="M510 294C524.912 294 537 281.912 537 267C537 252.088 524.912 240 510 240C495.088 240 483 252.088 483 267C483 281.912 495.088 294 510 294ZM510 285C519.941 285 528 276.941 528 267C528 257.059 519.941 249 510 249C500.059 249 492 257.059 492 267C492 276.941 500.059 285 510 285Z" fill="#2F8655"/>
<path fill-rule="evenodd" clip-rule="evenodd" d="M427 348C441.912 348 454 335.912 454 321C454 306.088 441.912 294 427 294C412.088 294 400 306.088 400 321C400 335.912 412.088 348 427 348ZM427 339C436.941 339 445 330.941 445 321C445 311.059 436.941 303 427 303C417.059 303 409 311.059 409 321C409 330.941 417.059 339 427 339Z" fill="#2F8655"/>
<path fill-rule="evenodd" clip-rule="evenodd" d="M488 208C502.912 208 515 195.912 515 181C515 166.088 502.912 154 488 154C473.088 154 461 166.088 461 181C461 195.912 473.088 208 488 208ZM488 199C497.941 199 506 190.941 506 181C506 171.059 497.941 163 488 163C478.059 163 470 171.059 470 181C470 190.941 478.059 199 488 199Z" fill="#2F8655"/>
<path fill-rule="evenodd" clip-rule="evenodd" d="M556 141C570.912 141 583 128.912 583 114C583 99.0883 570.912 87 556 87C541.088 87 529 99.0883 529 114C529 128.912 541.088 141 556 141ZM556 132C565.941 132 574 123.941 574 114C574 104.059 565.941 96 556 96C546.059 96 538 104.059 538 114C538 123.941 546.059 132 556 132Z" fill="#2F8655"/>
<path fill-rule="evenodd" clip-rule="evenodd" d="M400 267C414.912 267 427 254.912 427 240C427 225.088 414.912 213 400 213C385.088 213 373 225.088 373 240C373 254.912 385.088 267 400 267ZM400 258C409.941 258 418 249.941 418 240C418 230.059 409.941 222 400 222C390.059 222 382 230.059 382 240C382 249.941 390.059 258 400 258Z" fill="#2F8655"/>
<path fill-rule="evenodd" clip-rule="evenodd" d="M510 63C524.912 63 537 50.9117 537 36C537 21.0883 524.912 9 510 9C495.088 9 483 21.0883 483 36C483 50.9117 495.088 63 510 63ZM510 54C519.941 54 528 45.9411 528 36C528 26.0589 519.941 18 510 18C500.059 18 492 26.0589 492 36C492 45.9411 500.059 54 510 54Z" fill="#2F8655"/>
<path fill-rule="evenodd" clip-rule="evenodd" d="M537 384C551.912 384 564 371.912 564 357C564 342.088 551.912 330 537 330C522.088 330 510 342.088 510 357C510 371.912 522.088 384 537 384ZM537 375C546.941 375 555 366.941 555 357C555 347.059 546.941 339 537 339C527.059 339 519 347.059 519 357C519 366.941 527.059 375 537 375Z" fill="#2F8655"/>
<path fill-rule="evenodd" clip-rule="evenodd" d="M355 389C369.912 389 382 376.912 382 362C382 347.088 369.912 335 355 335C340.088 335 328 347.088 328 362C328 376.912 340.088 389 355 389ZM355 380C364.941 380 373 371.941 373 362C373 352.059 364.941 344 355 344C345.059 344 337 352.059 337 362C337 371.941 345.059 380 355 380Z" fill="#2F8655"/>
<path d="M27.368 41.44C27.896 41.376 28.328 41.176 28.664 40.84C29 40.504 29.168 39.912 29.168 39.064V37.72C28.368 38.12 27.528 38.32 26.648 38.32C25.56 38.32 24.6 38.112 23.768 37.696C22.936 37.264 22.288 36.656 21.824 35.872C21.376 35.072 21.152 34.144 21.152 33.088V26.2H23.792V32.848C23.792 33.84 24.032 34.568 24.512 35.032C24.992 35.496 25.704 35.728 26.648 35.728C27.176 35.728 27.608 35.672 27.944 35.56C28.296 35.448 28.536 35.336 28.664 35.224C28.808 35.112 28.976 34.96 29.168 34.768V26.2H31.808V39.256C31.808 40.52 31.536 41.504 30.992 42.208C30.448 42.912 29.52 43.328 28.208 43.456L27.368 41.44ZM43.949 38.584C43.949 39.928 43.581 41.04 42.845 41.92C42.109 42.8 40.997 43.24 39.509 43.24C38.021 43.24 36.893 42.8 36.125 41.92C35.373 41.024 34.997 39.912 34.997 38.584V35.416C34.997 33.896 35.381 32.736 36.149 31.936C36.933 31.12 38.053 30.712 39.509 30.712C40.901 30.712 41.989 31.136 42.773 31.984C43.557 32.816 43.949 33.96 43.949 35.416V38.584ZM41.333 35.416C41.333 34.568 41.157 34.016 40.805 33.76C40.453 33.504 40.021 33.376 39.509 33.376C38.261 33.376 37.637 34.056 37.637 35.416V38.824C37.637 39.464 37.813 39.928 38.165 40.216C38.517 40.504 38.965 40.648 39.509 40.648C40.037 40.648 40.469 40.496 40.805 40.192C41.157 39.888 41.333 39.432 41.333 38.824V35.416Z" fill="#F5F5F5"/>
<path d="M23.72 77.32C23.8 78.024 24.088 78.592 24.584 79.024C25.08 79.456 25.728 79.672 26.528 79.672C27.2 79.672 27.744 79.56 28.16 79.336C28.592 79.112 28.904 78.84 29.096 78.52C29.288 78.2 29.384 77.888 29.384 77.584C29.384 76.88 29.208 76.296 28.856 75.832C28.52 75.352 28.096 74.976 27.584 74.704C27.088 74.416 26.408 74.088 25.544 73.72C24.6 73.32 23.848 72.96 23.288 72.64C22.744 72.304 22.272 71.856 21.872 71.296C21.488 70.72 21.296 69.992 21.296 69.112C21.296 68.408 21.496 67.744 21.896 67.12C22.296 66.48 22.904 65.96 23.72 65.56C24.536 65.16 25.536 64.96 26.72 64.96C27.504 64.96 28.152 65.016 28.664 65.128C29.176 65.24 29.696 65.424 30.224 65.68L29.384 68.176C28.808 67.984 28.336 67.848 27.968 67.768C27.616 67.688 27.208 67.648 26.744 67.648C25.832 67.648 25.16 67.808 24.728 68.128C24.296 68.448 24.104 68.856 24.152 69.352C24.2 69.752 24.44 70.096 24.872 70.384C25.32 70.672 26.008 71.024 26.936 71.44C28.024 71.92 28.928 72.376 29.648 72.808C30.368 73.24 30.984 73.832 31.496 74.584C32.024 75.336 32.288 76.256 32.288 77.344C32.288 78.768 31.816 79.944 30.872 80.872C29.928 81.8 28.488 82.264 26.552 82.264C25.368 82.264 24.352 82.048 23.504 81.616C22.672 81.168 22.032 80.6 21.584 79.912C21.152 79.208 20.92 78.48 20.888 77.728L23.72 77.32ZM44.2771 77.584C44.2771 78.928 43.9091 80.04 43.1731 80.92C42.4371 81.8 41.3251 82.24 39.8371 82.24C38.3491 82.24 37.2211 81.8 36.4531 80.92C35.7011 80.024 35.3251 78.912 35.3251 77.584V74.416C35.3251 72.896 35.7091 71.736 36.4771 70.936C37.2611 70.12 38.3811 69.712 39.8371 69.712C41.2291 69.712 42.3171 70.136 43.1011 70.984C43.8851 71.816 44.2771 72.96 44.2771 74.416V77.584ZM41.6611 74.416C41.6611 73.568 41.4851 73.016 41.1331 72.76C40.7811 72.504 40.3491 72.376 39.8371 72.376C38.5891 72.376 37.9651 73.056 37.9651 74.416V77.824C37.9651 78.464 38.1411 78.928 38.4931 79.216C38.8451 79.504 39.2931 79.648 39.8371 79.648C40.3651 79.648 40.7971 79.496 41.1331 79.192C41.4851 78.888 41.6611 78.432 41.6611 77.824V74.416ZM51.3275 84.952C51.7435 84.952 52.1115 84.824 52.4315 84.568C52.7675 84.312 52.9355 83.904 52.9355 83.344V81.952C52.8875 81.968 52.7035 82.024 52.3835 82.12C52.0635 82.232 51.5915 82.288 50.9675 82.288C49.5595 82.288 48.4715 81.912 47.7035 81.16C46.9515 80.392 46.5755 79.264 46.5755 77.776V69.976H49.2155V77.056C49.2155 78.064 49.3435 78.752 49.5995 79.12C49.8715 79.472 50.3275 79.648 50.9675 79.648C51.4315 79.648 51.7995 79.584 52.0715 79.456C52.3595 79.312 52.5755 79.056 52.7195 78.688C52.8635 78.304 52.9355 77.76 52.9355 77.056V73.288C52.9355 72.744 53.0635 72.208 53.3195 71.68C53.5915 71.152 53.9595 70.712 54.4235 70.36C54.9035 70.008 55.4395 69.808 56.0315 69.76L57.0155 71.92C56.5515 72.032 56.1915 72.256 55.9355 72.592C55.6955 72.912 55.5755 73.272 55.5755 73.672V83.464C55.5755 84.504 55.3275 85.32 54.8315 85.912C54.3515 86.52 53.5275 86.896 52.3595 87.04L51.3275 84.952ZM66.9558 80.8C66.9558 81.12 66.8358 81.4 66.5958 81.64C66.3558 81.88 66.0678 82 65.7318 82C65.4118 82 65.1318 81.88 64.8918 81.64C64.6518 81.4 64.5318 81.12 64.5318 80.8C64.5318 80.464 64.6518 80.176 64.8918 79.936C65.1318 79.696 65.4118 79.576 65.7318 79.576C66.0678 79.576 66.3558 79.696 66.5958 79.936C66.8358 80.176 66.9558 80.464 66.9558 80.8ZM70.3777 80.8C70.3777 81.12 70.2577 81.4 70.0177 81.64C69.7777 81.88 69.4897 82 69.1537 82C68.8337 82 68.5537 81.88 68.3137 81.64C68.0737 81.4 67.9537 81.12 67.9537 80.8C67.9537 80.464 68.0737 80.176 68.3137 79.936C68.5537 79.696 68.8337 79.576 69.1537 79.576C69.4897 79.576 69.7777 79.696 70.0177 79.936C70.2577 80.176 70.3777 80.464 70.3777 80.8ZM73.7996 80.8C73.7996 81.12 73.6796 81.4 73.4396 81.64C73.1996 81.88 72.9116 82 72.5756 82C72.2556 82 71.9756 81.88 71.7356 81.64C71.4956 81.4 71.3756 81.12 71.3756 80.8C71.3756 80.464 71.4956 80.176 71.7356 79.936C71.9756 79.696 72.2556 79.576 72.5756 79.576C72.9116 79.576 73.1996 79.696 73.4396 79.936C73.6796 80.176 73.7996 80.464 73.7996 80.8Z" fill="#F5F5F5"/>
<path d="M36.922 106.524C36.2034 106.524 35.5434 106.348 34.942 105.996C34.3554 105.644 33.886 105.167 33.534 104.566C33.182 103.965 33.006 103.305 33.006 102.586C33.006 101.867 33.182 101.215 33.534 100.628C33.886 100.027 34.3554 99.55 34.942 99.198C35.5434 98.846 36.2034 98.67 36.922 98.67C37.6407 98.67 38.3007 98.846 38.902 99.198C39.5034 99.55 39.98 100.027 40.332 100.628C40.684 101.215 40.86 101.867 40.86 102.586C40.86 103.305 40.684 103.965 40.332 104.566C39.98 105.167 39.5034 105.644 38.902 105.996C38.3007 106.348 37.6407 106.524 36.922 106.524ZM54.716 94.6H62.064V97.02H57.136V100.914H60.15L59.468 103.224H57.136V107.8H62.02V110H54.716V94.6ZM70.3326 103.07C70.3326 102.483 70.1639 102.014 69.8266 101.662C69.5039 101.295 69.0639 101.112 68.5066 101.112C68.0519 101.112 67.5606 101.244 67.0326 101.508V110H64.6346V98.978H66.7686L67.0546 99.11C67.6706 98.9047 68.3086 98.802 68.9686 98.802C69.7019 98.802 70.3399 98.934 70.8826 99.198C71.4692 99.462 71.9239 99.858 72.2466 100.386C72.5839 100.914 72.7526 101.581 72.7526 102.388V110H70.3326V103.07ZM77.4386 106.722C77.4386 107.133 77.5486 107.455 77.7686 107.69C78.0032 107.91 78.3406 108.02 78.7806 108.02C79.4552 108.02 80.3572 107.727 81.4866 107.14L82.3666 109.23C81.8386 109.567 81.2372 109.824 80.5626 110C79.8879 110.176 79.2132 110.264 78.5386 110.264C77.4532 110.264 76.5879 110 75.9426 109.472C75.3119 108.929 74.9966 108.123 74.9966 107.052V102.542C74.9966 101.354 75.3632 100.43 76.0966 99.77C76.8446 99.11 77.8272 98.78 79.0446 98.78C80.2619 98.78 81.2079 99.11 81.8826 99.77C82.5719 100.415 82.9166 101.317 82.9166 102.476V105.82L77.4386 106.106V106.722ZM80.4746 102.52C80.4746 102.08 80.3352 101.743 80.0566 101.508C79.7779 101.273 79.4332 101.156 79.0226 101.156C78.4652 101.156 78.0619 101.303 77.8126 101.596C77.5632 101.889 77.4386 102.212 77.4386 102.564V103.884L80.4746 103.686V102.52ZM85.1076 98.978H87.3516L87.5276 99.066C88.129 98.8607 88.6936 98.758 89.2216 98.758C89.5883 98.758 90.1236 98.8313 90.8276 98.978L91.2676 99.066L90.6956 101.42C90.285 101.215 89.8816 101.112 89.4856 101.112C88.943 101.112 88.481 101.281 88.0996 101.618C87.7183 101.941 87.5276 102.373 87.5276 102.916V110H85.1076V98.978ZM96.0664 112.728C96.565 112.728 96.9537 112.581 97.2324 112.288C97.5257 112.009 97.6724 111.584 97.6724 111.012V109.824C97.555 109.912 97.3424 110.007 97.0344 110.11C96.741 110.213 96.3597 110.264 95.8904 110.264C94.5997 110.264 93.595 109.912 92.8764 109.208C92.1577 108.504 91.7984 107.477 91.7984 106.128V102.85C91.7984 101.559 92.1724 100.562 92.9204 99.858C93.683 99.1393 94.7024 98.78 95.9784 98.78C96.389 98.78 96.7557 98.8313 97.0784 98.934C97.401 99.022 97.6064 99.1173 97.6944 99.22L98.1564 98.978H100.092V111.408C100.092 113.549 98.941 114.62 96.6384 114.62L96.0664 112.728ZM97.6724 103.07C97.6724 102.483 97.5404 102.021 97.2764 101.684C97.0124 101.347 96.5504 101.178 95.8904 101.178C95.289 101.178 94.8564 101.354 94.5924 101.706C94.343 102.043 94.2184 102.461 94.2184 102.96V105.798C94.2184 107.221 94.7757 107.932 95.8904 107.932C96.609 107.932 97.0857 107.697 97.3204 107.228C97.555 106.759 97.6724 105.989 97.6724 104.918V103.07ZM104.724 106.722C104.724 107.133 104.834 107.455 105.054 107.69C105.288 107.91 105.626 108.02 106.066 108.02C106.74 108.02 107.642 107.727 108.772 107.14L109.652 109.23C109.124 109.567 108.522 109.824 107.848 110C107.173 110.176 106.498 110.264 105.824 110.264C104.738 110.264 103.873 110 103.228 109.472C102.597 108.929 102.282 108.123 102.282 107.052V102.542C102.282 101.354 102.648 100.43 103.382 99.77C104.13 99.11 105.112 98.78 106.33 98.78C107.547 98.78 108.493 99.11 109.168 99.77C109.857 100.415 110.202 101.317 110.202 102.476V105.82L104.724 106.106V106.722ZM107.76 102.52C107.76 102.08 107.62 101.743 107.342 101.508C107.063 101.273 106.718 101.156 106.308 101.156C105.75 101.156 105.347 101.303 105.098 101.596C104.848 101.889 104.724 102.212 104.724 102.564V103.884L107.76 103.686V102.52ZM115.363 110.286C113.133 110.242 112.019 109.179 112.019 107.096V94.6H114.483V98.978H116.573L116.045 101.244H114.483V107.096C114.483 107.595 114.622 107.932 114.901 108.108C115.179 108.269 115.575 108.35 116.089 108.35L115.363 110.286ZM120.124 96.976C119.772 96.976 119.464 96.844 119.2 96.58C118.936 96.316 118.804 96.008 118.804 95.656C118.804 95.3187 118.936 95.0253 119.2 94.776C119.464 94.512 119.772 94.38 120.124 94.38C120.461 94.38 120.755 94.512 121.004 94.776C121.268 95.0253 121.4 95.3187 121.4 95.656C121.4 96.008 121.268 96.316 121.004 96.58C120.755 96.844 120.461 96.976 120.124 96.976ZM118.848 98.978H121.268V110H118.848V98.978ZM130.335 109.868C129.426 110.103 128.546 110.22 127.695 110.22C126.903 110.22 126.243 110.132 125.715 109.956C124.85 109.663 124.219 109.215 123.823 108.614C123.442 107.998 123.251 107.14 123.251 106.04V103.224C123.251 101.772 123.632 100.672 124.395 99.924C125.158 99.1613 126.14 98.78 127.343 98.78C128.296 98.78 129.279 99.0147 130.291 99.484L129.631 101.574C128.927 101.295 128.296 101.156 127.739 101.156C127.079 101.156 126.566 101.339 126.199 101.706C125.847 102.073 125.671 102.535 125.671 103.092V106.282C125.671 106.839 125.869 107.235 126.265 107.47C126.661 107.705 127.167 107.822 127.783 107.822C128.135 107.822 128.487 107.785 128.839 107.712C129.191 107.639 129.47 107.565 129.675 107.492L130.335 109.868ZM140.803 105.952C140.803 107.184 140.466 108.203 139.791 109.01C139.116 109.817 138.097 110.22 136.733 110.22C135.369 110.22 134.335 109.817 133.631 109.01C132.942 108.189 132.597 107.169 132.597 105.952V103.048C132.597 101.655 132.949 100.591 133.653 99.858C134.372 99.11 135.398 98.736 136.733 98.736C138.009 98.736 139.006 99.1247 139.725 99.902C140.444 100.665 140.803 101.713 140.803 103.048V105.952ZM138.405 103.048C138.405 102.271 138.244 101.765 137.921 101.53C137.598 101.295 137.202 101.178 136.733 101.178C135.589 101.178 135.017 101.801 135.017 103.048V106.172C135.017 106.759 135.178 107.184 135.501 107.448C135.824 107.712 136.234 107.844 136.733 107.844C137.217 107.844 137.613 107.705 137.921 107.426C138.244 107.147 138.405 106.729 138.405 106.172V103.048Z" fill="#F5F5F5"/>
<path d="M36.922 130.524C36.2034 130.524 35.5434 130.348 34.942 129.996C34.3554 129.644 33.886 129.167 33.534 128.566C33.182 127.965 33.006 127.305 33.006 126.586C33.006 125.867 33.182 125.215 33.534 124.628C33.886 124.027 34.3554 123.55 34.942 123.198C35.5434 122.846 36.2034 122.67 36.922 122.67C37.6407 122.67 38.3007 122.846 38.902 123.198C39.5034 123.55 39.98 124.027 40.332 124.628C40.684 125.215 40.86 125.867 40.86 126.586C40.86 127.305 40.684 127.965 40.332 128.566C39.98 129.167 39.5034 129.644 38.902 129.996C38.3007 130.348 37.6407 130.524 36.922 130.524ZM54.716 118.6H62.064V121.02H57.136V124.914H60.15L59.468 127.224H57.136V131.8H62.02V134H54.716V118.6ZM69.4966 130.92L67.5826 134H64.5686L68.0006 128.522L64.5686 122.978H67.6266L69.5186 126.124L71.4986 122.978H74.4906L70.9926 128.5L74.3146 134H71.4326L69.4966 130.92ZM79.6558 134.286C77.4264 134.242 76.3118 133.179 76.3118 131.096V118.6H78.7758V122.978H80.8658L80.3378 125.244H78.7758V131.096C78.7758 131.595 78.9151 131.932 79.1938 132.108C79.4724 132.269 79.8684 132.35 80.3818 132.35L79.6558 134.286ZM82.7229 122.978H84.9669L85.1429 123.066C85.7442 122.861 86.3089 122.758 86.8369 122.758C87.2035 122.758 87.7389 122.831 88.4429 122.978L88.8829 123.066L88.3109 125.42C87.9002 125.215 87.4969 125.112 87.1009 125.112C86.5582 125.112 86.0962 125.281 85.7149 125.618C85.3335 125.941 85.1429 126.373 85.1429 126.916V134H82.7229V122.978ZM98.5216 129.952C98.5216 131.184 98.1843 132.203 97.5096 133.01C96.8349 133.817 95.8156 134.22 94.4516 134.22C93.0876 134.22 92.0536 133.817 91.3496 133.01C90.6603 132.189 90.3156 131.169 90.3156 129.952V127.048C90.3156 125.655 90.6676 124.591 91.3716 123.858C92.0903 123.11 93.1169 122.736 94.4516 122.736C95.7276 122.736 96.7249 123.125 97.4436 123.902C98.1623 124.665 98.5216 125.713 98.5216 127.048V129.952ZM96.1236 127.048C96.1236 126.271 95.9623 125.765 95.6396 125.53C95.3169 125.295 94.9209 125.178 94.4516 125.178C93.3076 125.178 92.7356 125.801 92.7356 127.048V130.172C92.7356 130.759 92.8969 131.184 93.2196 131.448C93.5423 131.712 93.9529 131.844 94.4516 131.844C94.9356 131.844 95.3316 131.705 95.6396 131.426C95.9623 131.147 96.1236 130.729 96.1236 130.172V127.048ZM99.4124 122.978H102.052L104.098 129.71L106.1 122.978H108.718L105.264 134H102.932L99.4124 122.978ZM111.577 130.722C111.577 131.133 111.687 131.455 111.907 131.69C112.142 131.91 112.479 132.02 112.919 132.02C113.594 132.02 114.496 131.727 115.625 131.14L116.505 133.23C115.977 133.567 115.376 133.824 114.701 134C114.027 134.176 113.352 134.264 112.677 134.264C111.592 134.264 110.727 134 110.081 133.472C109.451 132.929 109.135 132.123 109.135 131.052V126.542C109.135 125.354 109.502 124.43 110.235 123.77C110.983 123.11 111.966 122.78 113.183 122.78C114.401 122.78 115.347 123.11 116.021 123.77C116.711 124.415 117.055 125.317 117.055 126.476V129.82L111.577 130.106V130.722ZM114.613 126.52C114.613 126.08 114.474 125.743 114.195 125.508C113.917 125.273 113.572 125.156 113.161 125.156C112.604 125.156 112.201 125.303 111.951 125.596C111.702 125.889 111.577 126.212 111.577 126.564V127.884L114.613 127.686V126.52ZM119.246 122.978H121.49L121.666 123.066C122.268 122.861 122.832 122.758 123.36 122.758C123.727 122.758 124.262 122.831 124.966 122.978L125.406 123.066L124.834 125.42C124.424 125.215 124.02 125.112 123.624 125.112C123.082 125.112 122.62 125.281 122.238 125.618C121.857 125.941 121.666 126.373 121.666 126.916V134H119.246V122.978ZM129.908 134.286C127.678 134.242 126.564 133.179 126.564 131.096V118.6H129.028V122.978H131.118L130.59 125.244H129.028V131.096C129.028 131.595 129.167 131.932 129.446 132.108C129.724 132.269 130.12 132.35 130.634 132.35L129.908 134.286ZM134.669 120.976C134.317 120.976 134.009 120.844 133.745 120.58C133.481 120.316 133.349 120.008 133.349 119.656C133.349 119.319 133.481 119.025 133.745 118.776C134.009 118.512 134.317 118.38 134.669 118.38C135.006 118.38 135.299 118.512 135.549 118.776C135.813 119.025 135.945 119.319 135.945 119.656C135.945 120.008 135.813 120.316 135.549 120.58C135.299 120.844 135.006 120.976 134.669 120.976ZM133.393 122.978H135.813V134H133.393V122.978ZM139.429 126.388C139.429 124.848 140.052 123.792 141.299 123.22C141.9 122.927 142.604 122.78 143.411 122.78C144.1 122.78 144.68 122.868 145.149 123.044V118.6H147.547V134L146.337 134.11C145.384 134.213 144.636 134.264 144.093 134.264C143.55 134.264 143.037 134.213 142.553 134.11C142.084 134.007 141.614 133.839 141.145 133.604C140.617 133.34 140.199 132.951 139.891 132.438C139.583 131.925 139.429 131.294 139.429 130.546V126.388ZM145.149 125.596C144.621 125.347 144.13 125.222 143.675 125.222C143.147 125.222 142.707 125.391 142.355 125.728C142.003 126.065 141.827 126.579 141.827 127.268V130.7C141.827 131.081 142.032 131.397 142.443 131.646C142.854 131.895 143.374 132.02 144.005 132.02C144.401 132.02 144.782 131.969 145.149 131.866V125.596ZM158.334 129.952C158.334 131.184 157.997 132.203 157.322 133.01C156.647 133.817 155.628 134.22 154.264 134.22C152.9 134.22 151.866 133.817 151.162 133.01C150.473 132.189 150.128 131.169 150.128 129.952V127.048C150.128 125.655 150.48 124.591 151.184 123.858C151.903 123.11 152.929 122.736 154.264 122.736C155.54 122.736 156.537 123.125 157.256 123.902C157.975 124.665 158.334 125.713 158.334 127.048V129.952ZM155.936 127.048C155.936 126.271 155.775 125.765 155.452 125.53C155.129 125.295 154.733 125.178 154.264 125.178C153.12 125.178 152.548 125.801 152.548 127.048V130.172C152.548 130.759 152.709 131.184 153.032 131.448C153.355 131.712 153.765 131.844 154.264 131.844C154.748 131.844 155.144 131.705 155.452 131.426C155.775 131.147 155.936 130.729 155.936 130.172V127.048Z" fill="#F5F5F5"/>
<path d="M36.922 154.524C36.2034 154.524 35.5434 154.348 34.942 153.996C34.3554 153.644 33.886 153.167 33.534 152.566C33.182 151.965 33.006 151.305 33.006 150.586C33.006 149.867 33.182 149.215 33.534 148.628C33.886 148.027 34.3554 147.55 34.942 147.198C35.5434 146.846 36.2034 146.67 36.922 146.67C37.6407 146.67 38.3007 146.846 38.902 147.198C39.5034 147.55 39.98 148.027 40.332 148.628C40.684 149.215 40.86 149.867 40.86 150.586C40.86 151.305 40.684 151.965 40.332 152.566C39.98 153.167 39.5034 153.644 38.902 153.996C38.3007 154.348 37.6407 154.524 36.922 154.524ZM60.59 153.974H57.048L56.19 158H53.462L57.07 142.6H60.48L64.374 158H61.492L60.59 153.974ZM57.62 151.4H60.018L58.764 146.648L57.62 151.4ZM66.3176 142.6H68.7376V158H66.3176V142.6ZM73.7003 154.722C73.7003 155.133 73.8103 155.455 74.0303 155.69C74.2649 155.91 74.6023 156.02 75.0423 156.02C75.7169 156.02 76.6189 155.727 77.7483 155.14L78.6283 157.23C78.1003 157.567 77.4989 157.824 76.8243 158C76.1496 158.176 75.4749 158.264 74.8003 158.264C73.7149 158.264 72.8496 158 72.2043 157.472C71.5736 156.929 71.2583 156.123 71.2583 155.052V150.542C71.2583 149.354 71.6249 148.43 72.3583 147.77C73.1063 147.11 74.0889 146.78 75.3063 146.78C76.5236 146.78 77.4696 147.11 78.1443 147.77C78.8336 148.415 79.1783 149.317 79.1783 150.476V153.82L73.7003 154.106V154.722ZM76.7363 150.52C76.7363 150.08 76.5969 149.743 76.3183 149.508C76.0396 149.273 75.6949 149.156 75.2843 149.156C74.7269 149.156 74.3236 149.303 74.0743 149.596C73.8249 149.889 73.7003 150.212 73.7003 150.564V151.884L76.7363 151.686V150.52ZM84.6152 160.728C85.1139 160.728 85.5025 160.581 85.7812 160.288C86.0745 160.009 86.2212 159.584 86.2212 159.012V157.824C86.1039 157.912 85.8912 158.007 85.5832 158.11C85.2899 158.213 84.9085 158.264 84.4392 158.264C83.1485 158.264 82.1439 157.912 81.4252 157.208C80.7065 156.504 80.3472 155.477 80.3472 154.128V150.85C80.3472 149.559 80.7212 148.562 81.4692 147.858C82.2319 147.139 83.2512 146.78 84.5272 146.78C84.9379 146.78 85.3045 146.831 85.6272 146.934C85.9499 147.022 86.1552 147.117 86.2432 147.22L86.7052 146.978H88.6412V159.408C88.6412 161.549 87.4899 162.62 85.1872 162.62L84.6152 160.728ZM86.2212 151.07C86.2212 150.483 86.0892 150.021 85.8252 149.684C85.5612 149.347 85.0992 149.178 84.4392 149.178C83.8379 149.178 83.4052 149.354 83.1412 149.706C82.8919 150.043 82.7672 150.461 82.7672 150.96V153.798C82.7672 155.221 83.3245 155.932 84.4392 155.932C85.1579 155.932 85.6345 155.697 85.8692 155.228C86.1039 154.759 86.2212 153.989 86.2212 152.918V151.07ZM91.1662 146.978H93.4102L93.5862 147.066C94.1876 146.861 94.7522 146.758 95.2802 146.758C95.6469 146.758 96.1822 146.831 96.8862 146.978L97.3262 147.066L96.7542 149.42C96.3436 149.215 95.9402 149.112 95.5442 149.112C95.0016 149.112 94.5396 149.281 94.1582 149.618C93.7769 149.941 93.5862 150.373 93.5862 150.916V158H91.1662V146.978ZM100.341 154.722C100.341 155.133 100.451 155.455 100.671 155.69C100.906 155.91 101.243 156.02 101.683 156.02C102.358 156.02 103.26 155.727 104.389 155.14L105.269 157.23C104.741 157.567 104.14 157.824 103.465 158C102.79 158.176 102.116 158.264 101.441 158.264C100.356 158.264 99.4902 158 98.8449 157.472C98.2142 156.929 97.8989 156.123 97.8989 155.052V150.542C97.8989 149.354 98.2656 148.43 98.9989 147.77C99.7469 147.11 100.73 146.78 101.947 146.78C103.164 146.78 104.11 147.11 104.785 147.77C105.474 148.415 105.819 149.317 105.819 150.476V153.82L100.341 154.106V154.722ZM103.377 150.52C103.377 150.08 103.238 149.743 102.959 149.508C102.68 149.273 102.336 149.156 101.925 149.156C101.368 149.156 100.964 149.303 100.715 149.596C100.466 149.889 100.341 150.212 100.341 150.564V151.884L103.377 151.686V150.52Z" fill="#F5F5F5"/>
<path d="M36.922 178.524C36.2034 178.524 35.5434 178.348 34.942 177.996C34.3554 177.644 33.886 177.167 33.534 176.566C33.182 175.965 33.006 175.305 33.006 174.586C33.006 173.867 33.182 173.215 33.534 172.628C33.886 172.027 34.3554 171.55 34.942 171.198C35.5434 170.846 36.2034 170.67 36.922 170.67C37.6407 170.67 38.3007 170.846 38.902 171.198C39.5034 171.55 39.98 172.027 40.332 172.628C40.684 173.215 40.86 173.867 40.86 174.586C40.86 175.305 40.684 175.965 40.332 176.566C39.98 177.167 39.5034 177.644 38.902 177.996C38.3007 178.348 37.6407 178.524 36.922 178.524ZM54.716 166.6H62.064V169.02H57.136V172.914H60.15L59.468 175.224H57.136V179.8H62.02V182H54.716V166.6ZM71.1906 176.632L67.9566 182H64.9426L69.7386 174.3L65.2066 166.6H68.0666L71.3006 171.704L74.3806 166.6H77.2626L72.7526 174.102L77.6366 182H74.5346L71.1906 176.632ZM87.896 181.494C86.5906 181.978 85.3733 182.22 84.244 182.22C82.968 182.22 81.934 181.883 81.142 181.208C80.35 180.533 79.954 179.455 79.954 177.974V170.912C79.954 169.797 80.108 168.954 80.416 168.382C80.7386 167.81 81.2226 167.326 81.868 166.93C82.5133 166.563 83.3053 166.38 84.244 166.38C85.388 166.38 86.422 166.622 87.346 167.106L86.664 169.306C85.9893 169.057 85.2486 168.932 84.442 168.932C83.826 168.932 83.3273 169.101 82.946 169.438C82.5646 169.775 82.374 170.201 82.374 170.714V177.93C82.374 179.162 83.0633 179.778 84.442 179.778C84.882 179.778 85.322 179.734 85.762 179.646C86.202 179.543 86.7886 179.397 87.522 179.206L87.896 181.494ZM90.6611 168.976L89.2971 168.932V166.6H93.0811V182H90.6611V168.976ZM98.0196 169.042H94.8516V166.6H103.696V169.042H100.44V182H98.0196V169.042ZM109.832 177.974H106.29L105.432 182H102.704L106.312 166.6H109.722L113.616 182H110.734L109.832 177.974ZM106.862 175.4H109.26L108.006 170.648L106.862 175.4ZM114.851 166.6H119.339C120.556 166.6 121.568 166.937 122.375 167.612C123.181 168.287 123.585 169.247 123.585 170.494C123.585 171.081 123.489 171.638 123.299 172.166C123.108 172.694 122.719 173.156 122.133 173.552L122.111 173.596V173.618C122.756 173.911 123.291 174.381 123.717 175.026C124.157 175.671 124.377 176.493 124.377 177.49C124.377 178.253 124.223 178.979 123.915 179.668C123.607 180.343 123.101 180.9 122.397 181.34C121.693 181.78 120.783 182 119.669 182H114.851V166.6ZM118.327 172.914C119.163 172.914 119.779 172.76 120.175 172.452C120.571 172.144 120.769 171.616 120.769 170.868C120.769 170.179 120.585 169.702 120.219 169.438C119.852 169.159 119.295 169.02 118.547 169.02H117.271V172.914H118.327ZM118.613 179.778C119.287 179.778 119.83 179.727 120.241 179.624C120.666 179.507 120.996 179.279 121.231 178.942C121.48 178.605 121.605 178.106 121.605 177.446C121.605 176.61 121.348 176.038 120.835 175.73C120.321 175.407 119.647 175.246 118.811 175.246H117.271V179.778H118.613ZM126.946 166.6H129.366V179.778H134.888V182H126.946V166.6ZM136.636 166.6H143.984V169.02H139.056V172.914H142.07L141.388 175.224H139.056V179.8H143.94V182H136.636V166.6Z" fill="#F5F5F5"/>
<path d="M36.922 202.524C36.2034 202.524 35.5434 202.348 34.942 201.996C34.3554 201.644 33.886 201.167 33.534 200.566C33.182 199.965 33.006 199.305 33.006 198.586C33.006 197.867 33.182 197.215 33.534 196.628C33.886 196.027 34.3554 195.55 34.942 195.198C35.5434 194.846 36.2034 194.67 36.922 194.67C37.6407 194.67 38.3007 194.846 38.902 195.198C39.5034 195.55 39.98 196.027 40.332 196.628C40.684 197.215 40.86 197.867 40.86 198.586C40.86 199.305 40.684 199.965 40.332 200.566C39.98 201.167 39.5034 201.644 38.902 201.996C38.3007 202.348 37.6407 202.524 36.922 202.524ZM62.394 205.494C61.0887 205.978 59.8713 206.22 58.742 206.22C57.466 206.22 56.432 205.883 55.64 205.208C54.848 204.533 54.452 203.455 54.452 201.974V194.912C54.452 193.797 54.606 192.954 54.914 192.382C55.2367 191.81 55.7207 191.326 56.366 190.93C57.0113 190.563 57.8033 190.38 58.742 190.38C59.886 190.38 60.92 190.622 61.844 191.106L61.162 193.306C60.4873 193.057 59.7467 192.932 58.94 192.932C58.324 192.932 57.8253 193.101 57.444 193.438C57.0627 193.775 56.872 194.201 56.872 194.714V201.93C56.872 203.162 57.5613 203.778 58.94 203.778C59.38 203.778 59.82 203.734 60.26 203.646C60.7 203.543 61.2867 203.397 62.02 203.206L62.394 205.494ZM63.7951 194.978H66.0391L66.2151 195.066C66.8165 194.861 67.3811 194.758 67.9091 194.758C68.2758 194.758 68.8111 194.831 69.5151 194.978L69.9551 195.066L69.3831 197.42C68.9725 197.215 68.5691 197.112 68.1731 197.112C67.6305 197.112 67.1685 197.281 66.7871 197.618C66.4058 197.941 66.2151 198.373 66.2151 198.916V206H63.7951V194.978ZM72.9698 202.722C72.9698 203.133 73.0798 203.455 73.2998 203.69C73.5345 203.91 73.8718 204.02 74.3118 204.02C74.9865 204.02 75.8885 203.727 77.0178 203.14L77.8978 205.23C77.3698 205.567 76.7685 205.824 76.0938 206C75.4191 206.176 74.7445 206.264 74.0698 206.264C72.9845 206.264 72.1191 206 71.4738 205.472C70.8431 204.929 70.5278 204.123 70.5278 203.052V198.542C70.5278 197.354 70.8945 196.43 71.6278 195.77C72.3758 195.11 73.3585 194.78 74.5758 194.78C75.7931 194.78 76.7391 195.11 77.4138 195.77C78.1031 196.415 78.4478 197.317 78.4478 198.476V201.82L72.9698 202.106V202.722ZM76.0058 198.52C76.0058 198.08 75.8665 197.743 75.5878 197.508C75.3091 197.273 74.9645 197.156 74.5538 197.156C73.9965 197.156 73.5931 197.303 73.3438 197.596C73.0945 197.889 72.9698 198.212 72.9698 198.564V199.884L76.0058 199.686V198.52ZM88.5809 206C86.9969 206.161 85.8529 206.242 85.1489 206.242C83.6089 206.242 82.3842 205.956 81.4749 205.384C80.5655 204.812 80.1109 203.778 80.1109 202.282V200.456C80.1109 199.004 80.6169 198.029 81.6289 197.53C82.1129 197.295 82.6629 197.178 83.2789 197.178C83.8215 197.178 84.3569 197.251 84.8849 197.398C85.4129 197.545 85.8382 197.706 86.1609 197.882C86.1609 197.339 85.9409 196.973 85.5009 196.782C85.0609 196.577 84.4962 196.474 83.8069 196.474L84.0049 194.802C85.4129 194.802 86.4469 195.029 87.1069 195.484C87.7815 195.924 88.1922 196.452 88.3389 197.068C88.5002 197.684 88.5809 198.476 88.5809 199.444V206ZM86.1609 200.456C85.8969 200.265 85.5229 200.089 85.0389 199.928C84.5695 199.752 84.1369 199.664 83.7409 199.664C83.3889 199.664 83.1029 199.752 82.8829 199.928C82.6629 200.104 82.5529 200.383 82.5529 200.764V201.974C82.5529 203.309 83.3375 203.976 84.9069 203.976C85.3615 203.976 85.7795 203.939 86.1609 203.866V200.456ZM94.1147 206.286C91.8854 206.242 90.7707 205.179 90.7707 203.096V190.6H93.2347V194.978H95.3247L94.7967 197.244H93.2347V203.096C93.2347 203.595 93.3741 203.932 93.6527 204.108C93.9314 204.269 94.3274 204.35 94.8407 204.35L94.1147 206.286ZM98.8758 192.976C98.5238 192.976 98.2158 192.844 97.9518 192.58C97.6878 192.316 97.5558 192.008 97.5558 191.656C97.5558 191.319 97.6878 191.025 97.9518 190.776C98.2158 190.512 98.5238 190.38 98.8758 190.38C99.2132 190.38 99.5065 190.512 99.7558 190.776C100.02 191.025 100.152 191.319 100.152 191.656C100.152 192.008 100.02 192.316 99.7558 192.58C99.5065 192.844 99.2132 192.976 98.8758 192.976ZM97.5998 194.978H100.02V206H97.5998V194.978ZM101.754 194.978H104.394L106.44 201.71L108.442 194.978H111.06L107.606 206H105.274L101.754 194.978ZM120.693 201.952C120.693 203.184 120.356 204.203 119.681 205.01C119.007 205.817 117.987 206.22 116.623 206.22C115.259 206.22 114.225 205.817 113.521 205.01C112.832 204.189 112.487 203.169 112.487 201.952V199.048C112.487 197.655 112.839 196.591 113.543 195.858C114.262 195.11 115.289 194.736 116.623 194.736C117.899 194.736 118.897 195.125 119.615 195.902C120.334 196.665 120.693 197.713 120.693 199.048V201.952ZM118.295 199.048C118.295 198.271 118.134 197.765 117.811 197.53C117.489 197.295 117.093 197.178 116.623 197.178C115.479 197.178 114.907 197.801 114.907 199.048V202.172C114.907 202.759 115.069 203.184 115.391 203.448C115.714 203.712 116.125 203.844 116.623 203.844C117.107 203.844 117.503 203.705 117.811 203.426C118.134 203.147 118.295 202.729 118.295 202.172V199.048Z" fill="#F5F5F5"/>
<path d="M36.922 226.524C36.2034 226.524 35.5434 226.348 34.942 225.996C34.3554 225.644 33.886 225.167 33.534 224.566C33.182 223.965 33.006 223.305 33.006 222.586C33.006 221.867 33.182 221.215 33.534 220.628C33.886 220.027 34.3554 219.55 34.942 219.198C35.5434 218.846 36.2034 218.67 36.922 218.67C37.6407 218.67 38.3007 218.846 38.902 219.198C39.5034 219.55 39.98 220.027 40.332 220.628C40.684 221.215 40.86 221.867 40.86 222.586C40.86 223.305 40.684 223.965 40.332 224.566C39.98 225.167 39.5034 225.644 38.902 225.996C38.3007 226.348 37.6407 226.524 36.922 226.524ZM60.59 225.974H57.048L56.19 230H53.462L57.07 214.6H60.48L64.374 230H61.492L60.59 225.974ZM57.62 223.4H60.018L58.764 218.648L57.62 223.4ZM65.8234 218.978H68.1114L68.2434 219.132C68.4048 219.059 68.6468 218.985 68.9694 218.912C69.3068 218.839 69.6294 218.802 69.9374 218.802C71.3014 218.802 72.3354 219.198 73.0394 219.99C73.7581 220.782 74.1174 221.809 74.1174 223.07V226.128C74.1174 227.463 73.7434 228.489 72.9954 229.208C72.2474 229.912 71.2574 230.264 70.0254 230.264C69.6294 230.264 69.3288 230.242 69.1234 230.198C68.9181 230.169 68.7421 230.125 68.5954 230.066C68.4488 230.022 68.3314 229.985 68.2434 229.956V234.136L65.8234 234.62V218.978ZM71.6974 222.982C71.6974 222.395 71.5654 221.948 71.3014 221.64C71.0521 221.332 70.6268 221.178 70.0254 221.178C69.4241 221.178 68.9768 221.332 68.6834 221.64C68.3901 221.933 68.2434 222.344 68.2434 222.872V225.864C68.2434 226.451 68.3681 226.927 68.6174 227.294C68.8814 227.661 69.3508 227.844 70.0254 227.844C70.7001 227.844 71.1474 227.668 71.3674 227.316C71.5874 226.964 71.6974 226.377 71.6974 225.556V222.982ZM84.2625 230C82.6785 230.161 81.5345 230.242 80.8305 230.242C79.2905 230.242 78.0658 229.956 77.1565 229.384C76.2472 228.812 75.7925 227.778 75.7925 226.282V224.456C75.7925 223.004 76.2985 222.029 77.3105 221.53C77.7945 221.295 78.3445 221.178 78.9605 221.178C79.5032 221.178 80.0385 221.251 80.5665 221.398C81.0945 221.545 81.5198 221.706 81.8425 221.882C81.8425 221.339 81.6225 220.973 81.1825 220.782C80.7425 220.577 80.1778 220.474 79.4885 220.474L79.6865 218.802C81.0945 218.802 82.1285 219.029 82.7885 219.484C83.4632 219.924 83.8738 220.452 84.0205 221.068C84.1818 221.684 84.2625 222.476 84.2625 223.444V230ZM81.8425 224.456C81.5785 224.265 81.2045 224.089 80.7205 223.928C80.2512 223.752 79.8185 223.664 79.4225 223.664C79.0705 223.664 78.7845 223.752 78.5645 223.928C78.3445 224.104 78.2345 224.383 78.2345 224.764V225.974C78.2345 227.309 79.0192 227.976 80.5885 227.976C81.0432 227.976 81.4612 227.939 81.8425 227.866V224.456ZM88.2667 226.964C88.2667 227.228 88.3987 227.477 88.6627 227.712C88.9414 227.947 89.3594 228.064 89.9167 228.064C90.4007 228.064 90.7747 227.947 91.0387 227.712C91.3027 227.463 91.4347 227.177 91.4347 226.854C91.4347 226.399 91.266 226.062 90.9287 225.842C90.606 225.622 90.078 225.38 89.3447 225.116C88.714 224.911 88.1934 224.705 87.7827 224.5C87.372 224.295 87.0054 223.987 86.6827 223.576C86.36 223.165 86.1694 222.63 86.1107 221.97C86.0667 221.471 86.162 220.973 86.3967 220.474C86.646 219.961 87.0567 219.543 87.6287 219.22C88.2154 218.883 88.9634 218.714 89.8727 218.714C90.342 218.714 90.7527 218.765 91.1047 218.868C91.4714 218.956 91.7574 219.051 91.9627 219.154C92.168 219.257 92.2927 219.323 92.3367 219.352L91.6327 221.596C91.6034 221.567 91.5227 221.515 91.3907 221.442C91.2734 221.354 91.0827 221.273 90.8187 221.2C90.5547 221.127 90.2394 221.09 89.8727 221.09C89.0807 221.09 88.6847 221.31 88.6847 221.75C88.6847 221.838 88.6994 221.926 88.7287 222.014C88.7727 222.219 88.9267 222.395 89.1907 222.542C89.4547 222.674 89.8434 222.835 90.3567 223.026C91.0754 223.29 91.6767 223.554 92.1607 223.818C92.6594 224.067 93.0847 224.449 93.4367 224.962C93.8034 225.461 93.9867 226.106 93.9867 226.898C93.9867 227.499 93.84 228.064 93.5467 228.592C93.2534 229.105 92.7987 229.523 92.1827 229.846C91.5814 230.169 90.826 230.33 89.9167 230.33C89.0807 230.33 88.3547 230.191 87.7387 229.912C87.1374 229.619 86.6754 229.237 86.3527 228.768C86.0447 228.299 85.876 227.778 85.8467 227.206L88.2667 226.964ZM97.5653 216.976C97.2133 216.976 96.9053 216.844 96.6413 216.58C96.3773 216.316 96.2453 216.008 96.2453 215.656C96.2453 215.319 96.3773 215.025 96.6413 214.776C96.9053 214.512 97.2133 214.38 97.5653 214.38C97.9026 214.38 98.196 214.512 98.4453 214.776C98.7093 215.025 98.8413 215.319 98.8413 215.656C98.8413 216.008 98.7093 216.316 98.4453 216.58C98.196 216.844 97.9026 216.976 97.5653 216.976ZM96.2893 218.978H98.7093V230H96.2893V218.978ZM110.531 225.952C110.531 227.184 110.194 228.203 109.519 229.01C108.845 229.817 107.825 230.22 106.461 230.22C105.097 230.22 104.063 229.817 103.359 229.01C102.67 228.189 102.325 227.169 102.325 225.952V223.048C102.325 221.655 102.677 220.591 103.381 219.858C104.1 219.11 105.127 218.736 106.461 218.736C107.737 218.736 108.735 219.125 109.453 219.902C110.172 220.665 110.531 221.713 110.531 223.048V225.952ZM108.133 223.048C108.133 222.271 107.972 221.765 107.649 221.53C107.327 221.295 106.931 221.178 106.461 221.178C105.317 221.178 104.745 221.801 104.745 223.048V226.172C104.745 226.759 104.907 227.184 105.229 227.448C105.552 227.712 105.963 227.844 106.461 227.844C106.945 227.844 107.341 227.705 107.649 227.426C107.972 227.147 108.133 226.729 108.133 226.172V223.048ZM118.501 223.07C118.501 222.483 118.332 222.014 117.995 221.662C117.672 221.295 117.232 221.112 116.675 221.112C116.22 221.112 115.729 221.244 115.201 221.508V230H112.803V218.978H114.937L115.223 219.11C115.839 218.905 116.477 218.802 117.137 218.802C117.87 218.802 118.508 218.934 119.051 219.198C119.637 219.462 120.092 219.858 120.415 220.386C120.752 220.914 120.921 221.581 120.921 222.388V230H118.501V223.07ZM131.679 230C130.095 230.161 128.951 230.242 128.247 230.242C126.707 230.242 125.482 229.956 124.573 229.384C123.663 228.812 123.209 227.778 123.209 226.282V224.456C123.209 223.004 123.715 222.029 124.727 221.53C125.211 221.295 125.761 221.178 126.377 221.178C126.919 221.178 127.455 221.251 127.983 221.398C128.511 221.545 128.936 221.706 129.259 221.882C129.259 221.339 129.039 220.973 128.599 220.782C128.159 220.577 127.594 220.474 126.905 220.474L127.103 218.802C128.511 218.802 129.545 219.029 130.205 219.484C130.879 219.924 131.29 220.452 131.437 221.068C131.598 221.684 131.679 222.476 131.679 223.444V230ZM129.259 224.456C128.995 224.265 128.621 224.089 128.137 223.928C127.667 223.752 127.235 223.664 126.839 223.664C126.487 223.664 126.201 223.752 125.981 223.928C125.761 224.104 125.651 224.383 125.651 224.764V225.974C125.651 227.309 126.435 227.976 128.005 227.976C128.459 227.976 128.877 227.939 129.259 227.866V224.456ZM134.187 222.388C134.187 220.848 134.81 219.792 136.057 219.22C136.658 218.927 137.362 218.78 138.169 218.78C138.858 218.78 139.437 218.868 139.907 219.044V214.6H142.305V230L141.095 230.11C140.141 230.213 139.393 230.264 138.851 230.264C138.308 230.264 137.795 230.213 137.311 230.11C136.841 230.007 136.372 229.839 135.903 229.604C135.375 229.34 134.957 228.951 134.649 228.438C134.341 227.925 134.187 227.294 134.187 226.546V222.388ZM139.907 221.596C139.379 221.347 138.887 221.222 138.433 221.222C137.905 221.222 137.465 221.391 137.113 221.728C136.761 222.065 136.585 222.579 136.585 223.268V226.7C136.585 227.081 136.79 227.397 137.201 227.646C137.611 227.895 138.132 228.02 138.763 228.02C139.159 228.02 139.54 227.969 139.907 227.866V221.596ZM153.092 225.952C153.092 227.184 152.755 228.203 152.08 229.01C151.405 229.817 150.386 230.22 149.022 230.22C147.658 230.22 146.624 229.817 145.92 229.01C145.231 228.189 144.886 227.169 144.886 225.952V223.048C144.886 221.655 145.238 220.591 145.942 219.858C146.661 219.11 147.687 218.736 149.022 218.736C150.298 218.736 151.295 219.125 152.014 219.902C152.733 220.665 153.092 221.713 153.092 223.048V225.952ZM150.694 223.048C150.694 222.271 150.533 221.765 150.21 221.53C149.887 221.295 149.491 221.178 149.022 221.178C147.878 221.178 147.306 221.801 147.306 223.048V226.172C147.306 226.759 147.467 227.184 147.79 227.448C148.113 227.712 148.523 227.844 149.022 227.844C149.506 227.844 149.902 227.705 150.21 227.426C150.533 227.147 150.694 226.729 150.694 226.172V223.048Z" fill="#F5F5F5"/>
<path d="M27.368 266.44C27.896 266.376 28.328 266.176 28.664 265.84C29 265.504 29.168 264.912 29.168 264.064V262.72C28.368 263.12 27.528 263.32 26.648 263.32C25.56 263.32 24.6 263.112 23.768 262.696C22.936 262.264 22.288 261.656 21.824 260.872C21.376 260.072 21.152 259.144 21.152 258.088V251.2H23.792V257.848C23.792 258.84 24.032 259.568 24.512 260.032C24.992 260.496 25.704 260.728 26.648 260.728C27.176 260.728 27.608 260.672 27.944 260.56C28.296 260.448 28.536 260.336 28.664 260.224C28.808 260.112 28.976 259.96 29.168 259.768V251.2H31.808V264.256C31.808 265.52 31.536 266.504 30.992 267.208C30.448 267.912 29.52 268.328 28.208 268.456L27.368 266.44Z" fill="#F5F5F5"/>
<path d="M30.008 309.784C27.768 309.848 26.32 308.984 25.664 307.192C24.576 307.064 23.608 306.648 22.76 305.944C21.928 305.224 21.512 304.096 21.512 302.56V294.832C21.512 293.184 21.96 291.936 22.856 291.088C23.768 290.24 25.016 289.816 26.6 289.816C28.184 289.816 29.408 290.264 30.272 291.16C31.152 292.056 31.592 293.288 31.592 294.856V302.56C31.592 303.904 31.256 304.936 30.584 305.656C29.928 306.376 29.184 306.816 28.352 306.976C28.56 307.216 28.792 307.368 29.048 307.432C29.32 307.496 29.752 307.528 30.344 307.528L30.008 309.784ZM28.952 294.88C28.952 294.304 28.784 293.784 28.448 293.32C28.112 292.856 27.48 292.624 26.552 292.624C25.592 292.624 24.952 292.832 24.632 293.248C24.312 293.648 24.152 294.192 24.152 294.88V302.536C24.152 302.968 24.216 303.416 24.344 303.88C24.472 304.344 24.768 304.576 25.232 304.576C25.2 304.32 25.184 304.136 25.184 304.024L25.208 303.256V302.824H27.848V303.232V303.736C27.848 303.832 27.84 303.952 27.824 304.096C27.824 304.224 27.832 304.376 27.848 304.552C28.328 304.552 28.632 304.344 28.76 303.928C28.888 303.512 28.952 303.04 28.952 302.512V294.88ZM40.3479 306.856C40.2999 306.872 40.1159 306.944 39.7959 307.072C39.4759 307.2 39.0599 307.264 38.5479 307.264C35.5399 307.264 34.0359 305.8 34.0359 302.872V294.976H36.6759V302.488C36.6759 303.224 36.8039 303.768 37.0599 304.12C37.3319 304.472 37.8279 304.648 38.5479 304.648C39.2679 304.648 39.7479 304.456 39.9879 304.072C40.2279 303.672 40.3479 303.112 40.3479 302.392V294.976H42.9879V307H40.5159L40.3479 306.856ZM47.2183 292.792C46.8343 292.792 46.4983 292.648 46.2103 292.36C45.9223 292.072 45.7783 291.736 45.7783 291.352C45.7783 290.984 45.9223 290.664 46.2103 290.392C46.4983 290.104 46.8343 289.96 47.2183 289.96C47.5863 289.96 47.9063 290.104 48.1783 290.392C48.4663 290.664 48.6103 290.984 48.6103 291.352C48.6103 291.736 48.4663 292.072 48.1783 292.36C47.9063 292.648 47.5863 292.792 47.2183 292.792ZM45.8263 294.976H48.4663V307H45.8263V294.976ZM54.0431 303.424C54.0431 303.872 54.1631 304.224 54.4031 304.48C54.6591 304.72 55.0271 304.84 55.5071 304.84C56.2431 304.84 57.2271 304.52 58.4591 303.88L59.4191 306.16C58.8431 306.528 58.1871 306.808 57.4511 307C56.7151 307.192 55.9791 307.288 55.2431 307.288C54.0591 307.288 53.1151 307 52.4111 306.424C51.7231 305.832 51.3791 304.952 51.3791 303.784V298.864C51.3791 297.568 51.7791 296.56 52.5791 295.84C53.3951 295.12 54.4671 294.76 55.7951 294.76C57.1231 294.76 58.1551 295.12 58.8911 295.84C59.6431 296.544 60.0191 297.528 60.0191 298.792V302.44L54.0431 302.752V303.424ZM57.3551 298.84C57.3551 298.36 57.2031 297.992 56.8991 297.736C56.5951 297.48 56.2191 297.352 55.7711 297.352C55.1631 297.352 54.7231 297.512 54.4511 297.832C54.1791 298.152 54.0431 298.504 54.0431 298.888V300.328L57.3551 300.112V298.84ZM62.4093 294.976H64.8573L65.0493 295.072C65.7053 294.848 66.3213 294.736 66.8973 294.736C67.2973 294.736 67.8813 294.816 68.6493 294.976L69.1293 295.072L68.5053 297.64C68.0573 297.416 67.6173 297.304 67.1853 297.304C66.5933 297.304 66.0893 297.488 65.6733 297.856C65.2573 298.208 65.0493 298.68 65.0493 299.272V307H62.4093V294.976ZM79.6443 302.584C79.6443 303.928 79.2763 305.04 78.5403 305.92C77.8043 306.8 76.6923 307.24 75.2043 307.24C73.7163 307.24 72.5883 306.8 71.8203 305.92C71.0683 305.024 70.6923 303.912 70.6923 302.584V299.416C70.6923 297.896 71.0763 296.736 71.8443 295.936C72.6283 295.12 73.7483 294.712 75.2043 294.712C76.5963 294.712 77.6843 295.136 78.4683 295.984C79.2523 296.816 79.6443 297.96 79.6443 299.416V302.584ZM77.0283 299.416C77.0283 298.568 76.8523 298.016 76.5003 297.76C76.1483 297.504 75.7163 297.376 75.2043 297.376C73.9563 297.376 73.3323 298.056 73.3323 299.416V302.824C73.3323 303.464 73.5083 303.928 73.8603 304.216C74.2123 304.504 74.6603 304.648 75.2043 304.648C75.7323 304.648 76.1643 304.496 76.5003 304.192C76.8523 303.888 77.0283 303.432 77.0283 302.824V299.416ZM89.7136 305.8C89.7136 306.12 89.5936 306.4 89.3536 306.64C89.1136 306.88 88.8256 307 88.4896 307C88.1696 307 87.8896 306.88 87.6496 306.64C87.4096 306.4 87.2896 306.12 87.2896 305.8C87.2896 305.464 87.4096 305.176 87.6496 304.936C87.8896 304.696 88.1696 304.576 88.4896 304.576C88.8256 304.576 89.1136 304.696 89.3536 304.936C89.5936 305.176 89.7136 305.464 89.7136 305.8ZM93.1355 305.8C93.1355 306.12 93.0155 306.4 92.7755 306.64C92.5355 306.88 92.2475 307 91.9115 307C91.5915 307 91.3115 306.88 91.0715 306.64C90.8315 306.4 90.7115 306.12 90.7115 305.8C90.7115 305.464 90.8315 305.176 91.0715 304.936C91.3115 304.696 91.5915 304.576 91.9115 304.576C92.2475 304.576 92.5355 304.696 92.7755 304.936C93.0155 305.176 93.1355 305.464 93.1355 305.8ZM96.5574 305.8C96.5574 306.12 96.4374 306.4 96.1974 306.64C95.9574 306.88 95.6694 307 95.3334 307C95.0134 307 94.7334 306.88 94.4934 306.64C94.2534 306.4 94.1334 306.12 94.1334 305.8C94.1334 305.464 94.2534 305.176 94.4934 304.936C94.7334 304.696 95.0134 304.576 95.3334 304.576C95.6694 304.576 95.9574 304.696 96.1974 304.936C96.4374 305.176 96.5574 305.464 96.5574 305.8Z" fill="#F5F5F5"/>
<path d="M36.922 331.524C36.2034 331.524 35.5434 331.348 34.942 330.996C34.3554 330.644 33.886 330.167 33.534 329.566C33.182 328.965 33.006 328.305 33.006 327.586C33.006 326.867 33.182 326.215 33.534 325.628C33.886 325.027 34.3554 324.55 34.942 324.198C35.5434 323.846 36.2034 323.67 36.922 323.67C37.6407 323.67 38.3007 323.846 38.902 324.198C39.5034 324.55 39.98 325.027 40.332 325.628C40.684 326.215 40.86 326.867 40.86 327.586C40.86 328.305 40.684 328.965 40.332 329.566C39.98 330.167 39.5034 330.644 38.902 330.996C38.3007 331.348 37.6407 331.524 36.922 331.524ZM54.716 319.6H57.136V332.778H62.658V335H54.716V319.6ZM65.7255 321.976C65.3735 321.976 65.0655 321.844 64.8015 321.58C64.5375 321.316 64.4055 321.008 64.4055 320.656C64.4055 320.319 64.5375 320.025 64.8015 319.776C65.0655 319.512 65.3735 319.38 65.7255 319.38C66.0628 319.38 66.3561 319.512 66.6055 319.776C66.8695 320.025 67.0015 320.319 67.0015 320.656C67.0015 321.008 66.8695 321.316 66.6055 321.58C66.3561 321.844 66.0628 321.976 65.7255 321.976ZM64.4495 323.978H66.8695V335H64.4495V323.978ZM78.6035 331.546C78.6035 332.294 78.4495 332.925 78.1415 333.438C77.8335 333.951 77.4155 334.34 76.8875 334.604C76.4182 334.839 75.9415 335.007 75.4575 335.11C74.9882 335.213 74.4822 335.264 73.9395 335.264C73.3969 335.264 72.6489 335.213 71.6955 335.11L70.4855 335V319.6H72.9055V324C73.5509 323.853 74.1375 323.78 74.6655 323.78C75.4135 323.78 76.1029 323.927 76.7335 324.22C77.9802 324.792 78.6035 325.848 78.6035 327.388V331.546ZM76.2055 328.07C76.2055 327.41 76.0222 326.941 75.6555 326.662C75.2889 326.369 74.8415 326.222 74.3135 326.222C74.0202 326.222 73.7415 326.259 73.4775 326.332C73.2135 326.405 73.0229 326.493 72.9055 326.596V332.888C73.1549 332.961 73.4555 332.998 73.8075 332.998C74.4235 332.998 74.9735 332.888 75.4575 332.668C75.9562 332.433 76.2055 332.074 76.2055 331.59V328.07ZM82.6808 331.722C82.6808 332.133 82.7908 332.455 83.0108 332.69C83.2454 332.91 83.5828 333.02 84.0228 333.02C84.6974 333.02 85.5994 332.727 86.7288 332.14L87.6088 334.23C87.0808 334.567 86.4794 334.824 85.8048 335C85.1301 335.176 84.4554 335.264 83.7808 335.264C82.6954 335.264 81.8301 335 81.1848 334.472C80.5541 333.929 80.2388 333.123 80.2388 332.052V327.542C80.2388 326.354 80.6054 325.43 81.3388 324.77C82.0868 324.11 83.0694 323.78 84.2868 323.78C85.5041 323.78 86.4501 324.11 87.1248 324.77C87.8141 325.415 88.1588 326.317 88.1588 327.476V330.82L82.6808 331.106V331.722ZM85.7168 327.52C85.7168 327.08 85.5774 326.743 85.2988 326.508C85.0201 326.273 84.6754 326.156 84.2648 326.156C83.7074 326.156 83.3041 326.303 83.0548 326.596C82.8054 326.889 82.6808 327.212 82.6808 327.564V328.884L85.7168 328.686V327.52ZM90.3498 323.978H92.5938L92.7698 324.066C93.3711 323.861 93.9358 323.758 94.4638 323.758C94.8305 323.758 95.3658 323.831 96.0698 323.978L96.5098 324.066L95.9378 326.42C95.5271 326.215 95.1238 326.112 94.7278 326.112C94.1851 326.112 93.7231 326.281 93.3418 326.618C92.9605 326.941 92.7698 327.373 92.7698 327.916V335H90.3498V323.978ZM101.011 335.286C98.7819 335.242 97.6672 334.179 97.6672 332.096V319.6H100.131V323.978H102.221L101.693 326.244H100.131V332.096C100.131 332.595 100.271 332.932 100.549 333.108C100.828 333.269 101.224 333.35 101.737 333.35L101.011 335.286ZM112.02 335C110.436 335.161 109.292 335.242 108.588 335.242C107.048 335.242 105.824 334.956 104.914 334.384C104.005 333.812 103.55 332.778 103.55 331.282V329.456C103.55 328.004 104.056 327.029 105.068 326.53C105.552 326.295 106.102 326.178 106.718 326.178C107.261 326.178 107.796 326.251 108.324 326.398C108.852 326.545 109.278 326.706 109.6 326.882C109.6 326.339 109.38 325.973 108.94 325.782C108.5 325.577 107.936 325.474 107.246 325.474L107.444 323.802C108.852 323.802 109.886 324.029 110.546 324.484C111.221 324.924 111.632 325.452 111.778 326.068C111.94 326.684 112.02 327.476 112.02 328.444V335ZM109.6 329.456C109.336 329.265 108.962 329.089 108.478 328.928C108.009 328.752 107.576 328.664 107.18 328.664C106.828 328.664 106.542 328.752 106.322 328.928C106.102 329.104 105.992 329.383 105.992 329.764V330.974C105.992 332.309 106.777 332.976 108.346 332.976C108.801 332.976 109.219 332.939 109.6 332.866V329.456ZM114.529 327.388C114.529 325.848 115.152 324.792 116.399 324.22C117 323.927 117.704 323.78 118.511 323.78C119.2 323.78 119.779 323.868 120.249 324.044V319.6H122.647V335L121.437 335.11C120.483 335.213 119.735 335.264 119.193 335.264C118.65 335.264 118.137 335.213 117.653 335.11C117.183 335.007 116.714 334.839 116.245 334.604C115.717 334.34 115.299 333.951 114.991 333.438C114.683 332.925 114.529 332.294 114.529 331.546V327.388ZM120.249 326.596C119.721 326.347 119.229 326.222 118.775 326.222C118.247 326.222 117.807 326.391 117.455 326.728C117.103 327.065 116.927 327.579 116.927 328.268V331.7C116.927 332.081 117.132 332.397 117.543 332.646C117.953 332.895 118.474 333.02 119.105 333.02C119.501 333.02 119.882 332.969 120.249 332.866V326.596Z" fill="#F5F5F5"/>
<path d="M471.59 43.974H468.048L467.19 48H464.462L468.07 32.6H471.48L475.374 48H472.492L471.59 43.974ZM468.62 41.4H471.018L469.764 36.648L468.62 41.4ZM482.983 47.868C482.074 48.1027 481.194 48.22 480.343 48.22C479.551 48.22 478.891 48.132 478.363 47.956C477.498 47.6627 476.867 47.2153 476.471 46.614C476.09 45.998 475.899 45.14 475.899 44.04V41.224C475.899 39.772 476.281 38.672 477.043 37.924C477.806 37.1613 478.789 36.78 479.991 36.78C480.945 36.78 481.927 37.0147 482.939 37.484L482.279 39.574C481.575 39.2953 480.945 39.156 480.387 39.156C479.727 39.156 479.214 39.3393 478.847 39.706C478.495 40.0727 478.319 40.5347 478.319 41.092V44.282C478.319 44.8393 478.517 45.2353 478.913 45.47C479.309 45.7047 479.815 45.822 480.431 45.822C480.783 45.822 481.135 45.7853 481.487 45.712C481.839 45.6387 482.118 45.5653 482.323 45.492L482.983 47.868ZM487.841 48.286C485.612 48.242 484.497 47.1787 484.497 45.096V32.6H486.961V36.978H489.051L488.523 39.244H486.961V45.096C486.961 45.5947 487.101 45.932 487.379 46.108C487.658 46.2693 488.054 46.35 488.567 46.35L487.841 48.286ZM492.602 34.976C492.25 34.976 491.942 34.844 491.678 34.58C491.414 34.316 491.282 34.008 491.282 33.656C491.282 33.3187 491.414 33.0253 491.678 32.776C491.942 32.512 492.25 32.38 492.602 32.38C492.94 32.38 493.233 32.512 493.482 32.776C493.746 33.0253 493.878 33.3187 493.878 33.656C493.878 34.008 493.746 34.316 493.482 34.58C493.233 34.844 492.94 34.976 492.602 34.976ZM491.326 36.978H493.746V48H491.326V36.978ZM495.481 36.978H498.121L500.167 43.71L502.169 36.978H504.787L501.333 48H499.001L495.481 36.978ZM508.222 34.976C507.87 34.976 507.562 34.844 507.298 34.58C507.034 34.316 506.902 34.008 506.902 33.656C506.902 33.3187 507.034 33.0253 507.298 32.776C507.562 32.512 507.87 32.38 508.222 32.38C508.559 32.38 508.852 32.512 509.102 32.776C509.366 33.0253 509.498 33.3187 509.498 33.656C509.498 34.008 509.366 34.316 509.102 34.58C508.852 34.844 508.559 34.976 508.222 34.976ZM506.946 36.978H509.366V48H506.946V36.978ZM514.478 44.964C514.478 45.228 514.61 45.4773 514.874 45.712C515.152 45.9467 515.57 46.064 516.128 46.064C516.612 46.064 516.986 45.9467 517.25 45.712C517.514 45.4627 517.646 45.1767 517.646 44.854C517.646 44.3993 517.477 44.062 517.14 43.842C516.817 43.622 516.289 43.38 515.556 43.116C514.925 42.9107 514.404 42.7053 513.994 42.5C513.583 42.2947 513.216 41.9867 512.894 41.576C512.571 41.1653 512.38 40.63 512.322 39.97C512.278 39.4713 512.373 38.9727 512.608 38.474C512.857 37.9607 513.268 37.5427 513.84 37.22C514.426 36.8827 515.174 36.714 516.084 36.714C516.553 36.714 516.964 36.7653 517.316 36.868C517.682 36.956 517.968 37.0513 518.174 37.154C518.379 37.2567 518.504 37.3227 518.548 37.352L517.844 39.596C517.814 39.5667 517.734 39.5153 517.602 39.442C517.484 39.354 517.294 39.2733 517.03 39.2C516.766 39.1267 516.45 39.09 516.084 39.09C515.292 39.09 514.896 39.31 514.896 39.75C514.896 39.838 514.91 39.926 514.94 40.014C514.984 40.2193 515.138 40.3953 515.402 40.542C515.666 40.674 516.054 40.8353 516.568 41.026C517.286 41.29 517.888 41.554 518.372 41.818C518.87 42.0673 519.296 42.4487 519.648 42.962C520.014 43.4607 520.198 44.106 520.198 44.898C520.198 45.4993 520.051 46.064 519.758 46.592C519.464 47.1053 519.01 47.5233 518.394 47.846C517.792 48.1687 517.037 48.33 516.128 48.33C515.292 48.33 514.566 48.1907 513.95 47.912C513.348 47.6187 512.886 47.2373 512.564 46.768C512.256 46.2987 512.087 45.778 512.058 45.206L514.478 44.964ZM525.052 48.286C522.823 48.242 521.708 47.1787 521.708 45.096V32.6H524.172V36.978H526.262L525.734 39.244H524.172V45.096C524.172 45.5947 524.312 45.932 524.59 46.108C524.869 46.2693 525.265 46.35 525.778 46.35L525.052 48.286ZM536.061 48C534.477 48.1613 533.333 48.242 532.629 48.242C531.089 48.242 529.865 47.956 528.955 47.384C528.046 46.812 527.591 45.778 527.591 44.282V42.456C527.591 41.004 528.097 40.0287 529.109 39.53C529.593 39.2953 530.143 39.178 530.759 39.178C531.302 39.178 531.837 39.2513 532.365 39.398C532.893 39.5447 533.319 39.706 533.641 39.882C533.641 39.3393 533.421 38.9727 532.981 38.782C532.541 38.5767 531.977 38.474 531.287 38.474L531.485 36.802C532.893 36.802 533.927 37.0293 534.587 37.484C535.262 37.924 535.673 38.452 535.819 39.068C535.981 39.684 536.061 40.476 536.061 41.444V48ZM533.641 42.456C533.377 42.2653 533.003 42.0893 532.519 41.928C532.05 41.752 531.617 41.664 531.221 41.664C530.869 41.664 530.583 41.752 530.363 41.928C530.143 42.104 530.033 42.3827 530.033 42.764V43.974C530.033 45.3087 530.818 45.976 532.387 45.976C532.842 45.976 533.26 45.9393 533.641 45.866V42.456Z" fill="#F5F5F5"/>
<path d="M519.279 66H535.979V71.5H524.779V80.35H531.629L530.079 85.6H524.779V96H535.879V101H519.279V66Z" fill="#F5F5F5"/>
<path d="M519.4 151.35V175H513.9V140H519.4L532.95 163.5V140H538.5V175H532.95L519.4 151.35Z" fill="#F5F5F5"/>
<path d="M519.621 214H536.321V219.5H525.121V228.35H532.121L530.321 233.6H525.121V249H519.621V214Z" fill="#F5F5F5"/>
<path d="M513.9 288H525.3C528.8 288 531.383 289.133 533.05 291.4C534.75 293.633 535.6 296.45 535.6 299.85C535.6 308.783 532.317 313.25 525.75 313.25H519.4V323H513.9V288ZM524.1 308C526 308 527.383 307.583 528.25 306.75C529.15 305.917 529.683 304.983 529.85 303.95C530.017 302.883 530.1 301.55 530.1 299.95C530.1 298.183 529.85 296.833 529.35 295.9C528.883 294.933 528.2 294.3 527.3 294C526.433 293.667 525.3 293.5 523.9 293.5H519.4V308H524.1Z" fill="#F5F5F5"/>
<rect x="237" y="79" width="182" height="244" rx="9" fill="#F5F5F5" stroke="#73C497" stroke-width="2"/>
</g>
<defs>
<clipPath id="clip0_62_12">
<rect width="564" height="362" rx="14" fill="white"/>
</clipPath>
</defs>
</svg>
